<?xml version="1.0" encoding="UTF-8" standalone="no"?>
<!DOCTYPE svg PUBLIC "-//W3C//DTD SVG 1.1//EN" "http://www.w3.org/Graphics/SVG/1.1/DTD/svg11.dtd">
<svg width="100%" height="100%" viewBox="0 0 300 300" version="1.1" xmlns="http://www.w3.org/2000/svg" xmlns:xlink="http://www.w3.org/1999/xlink" xml:space="preserve" xmlns:serif="http://www.serif.com/" style="fill-rule:evenodd;clip-rule:evenodd;stroke-linejoin:round;stroke-miterlimit:2;">
    <g transform="matrix(1.15052,0,0,1.15052,-19.286,14.824)">
        <g transform="matrix(0.931257,0,0,0.918731,7.45031,-22.9748)">
            <rect x="10" y="10.983" width="280" height="283.817" style="fill:none;"/>
        </g>
        <g transform="matrix(1.02069,0,0,2.26246,0.706695,-237.997)">
            <path d="M61.281,188.705C61.268,188.705 33.5,188.705 33.5,188.705C32.011,188.705 30.802,188.16 30.802,187.488C30.802,186.816 32.011,186.27 33.5,186.27L59.373,186.27L76.489,165.056C76.998,164.424 78.548,164.098 79.947,164.328C81.347,164.558 82.07,165.257 81.56,165.889L63.905,187.772C63.621,188.307 62.553,188.705 61.281,188.705Z" style="fill:rgb(90,56,224);"/>
        </g>
        <g transform="matrix(0.86064,0,0,2.26246,208.392,-237.997)">
            <path d="M63.979,187.488C63.979,188.16 62.545,188.705 60.779,188.705L34.002,188.705C32.236,188.705 30.802,188.16 30.802,187.488C30.802,186.816 32.236,186.27 34.002,186.27L60.779,186.27C62.545,186.27 63.979,186.816 63.979,187.488Z" style="fill:rgb(99,223,250);"/>
        </g>
        <g transform="matrix(0.863546,-2.37257,2.12602,0.773808,-305.54,116.775)">
            <path d="M63.979,187.488C63.979,188.16 63.49,188.705 62.888,188.705L31.893,188.705C31.29,188.705 30.802,188.16 30.802,187.488C30.802,186.816 31.29,186.27 31.893,186.27L62.888,186.27C63.49,186.27 63.979,186.816 63.979,187.488Z" style="fill:rgb(94,139,237);"/>
        </g>
        <g transform="matrix(1.17799,-3.2365,2.12602,0.773808,-250.62,143.385)">
            <path d="M63.979,187.488C63.979,188.16 63.621,188.705 63.179,188.705L31.601,188.705C31.16,188.705 30.802,188.16 30.802,187.488C30.802,186.816 31.16,186.27 31.601,186.27L63.179,186.27C63.621,186.27 63.979,186.816 63.979,187.488Z" style="fill:rgb(97,187,244);"/>
        </g>
        <g transform="matrix(1.1419,0,0,1.69743,-4.09019,-133.98)">
            <path d="M65.649,197.866L29.491,197.866C27.494,197.866 25.873,196.776 25.873,195.433C25.873,194.09 27.494,192.999 29.491,192.999L63.118,192.999L80.593,160.7C82.408,156.092 88.519,152.7 95.769,152.7C104.447,152.7 111.493,157.561 111.493,163.548C111.493,165.167 110.977,166.704 110.054,168.085L96.574,192.999L113.572,192.999L138.721,146.517C140.547,141.92 146.65,138.539 153.888,138.539C162.566,138.539 169.612,143.399 169.612,149.387C169.612,151.017 169.09,152.563 168.154,153.951C168.149,153.962 168.143,153.973 168.137,153.984L147.017,193.019L169.509,193.019L203.36,130.454C205.123,125.793 211.271,122.35 218.576,122.35C227.254,122.35 234.299,127.211 234.299,133.198C234.299,134.805 233.792,136.331 232.881,137.704C232.855,137.766 232.826,137.828 232.793,137.89L202.896,193.147L226.474,193.147C228.471,193.147 230.092,194.237 230.092,195.58C230.092,196.923 228.471,198.014 226.474,198.014L197.73,198.014C197.703,198.014 197.677,198.013 197.651,198.013C196.934,198.003 196.268,197.852 195.712,197.6C195.474,197.492 195.258,197.367 195.067,197.226C194.474,196.793 194.112,196.215 194.112,195.58C194.112,195.536 194.114,195.491 194.118,195.447C194.139,195.182 194.223,194.929 194.36,194.694L221.894,143.804C221.893,143.804 221.892,143.804 221.891,143.804L226.377,135.513C226.82,134.803 227.066,134.02 227.066,133.198C227.066,129.965 223.262,127.34 218.576,127.34C215.222,127.34 212.32,128.684 210.94,130.634C210.91,130.717 210.872,130.799 210.828,130.881L210.324,131.814C210.323,131.815 210.322,131.817 210.322,131.819L206.036,139.741C206.036,139.74 206.035,139.74 206.035,139.74L175.444,196.28C175.088,196.939 174.353,197.431 173.465,197.686C173.024,197.815 172.537,197.886 172.026,197.886L141.858,197.886C139.861,197.886 138.24,196.796 138.24,195.453C138.238,195.172 138.308,194.886 138.459,194.606L157.185,159.996C157.184,159.996 157.182,159.996 157.181,159.996L161.57,151.884C162.089,151.126 162.379,150.28 162.379,149.387C162.379,146.154 158.574,143.529 153.888,143.529C150.418,143.529 147.432,144.968 146.115,147.028C146.082,147.124 146.04,147.221 145.988,147.316L145.678,147.889L141.335,155.917L119.505,196.265C118.966,197.26 117.561,197.875 116.072,197.866L91.855,197.866C91.3,197.914 90.721,197.876 90.16,197.739C88.682,197.377 87.768,196.434 87.779,195.433C87.779,195.074 87.895,194.733 88.103,194.426L99.069,174.156C99.065,174.157 99.06,174.158 99.056,174.158L103.426,166.081C103.447,166.051 103.467,166.021 103.487,165.991L103.527,165.917C103.574,165.831 103.627,165.748 103.686,165.667C104.056,165.01 104.26,164.295 104.26,163.548C104.26,160.315 100.455,157.69 95.769,157.69C92.394,157.69 89.477,159.051 88.108,161.02C88.083,161.08 88.055,161.14 88.023,161.199L69.05,196.265C68.78,196.765 68.291,197.169 67.682,197.446C67.102,197.711 66.403,197.866 65.649,197.866Z" style="fill:url(#_Linear1);"/>
        </g>
        <g transform="matrix(1.18357,-0.459279,0.197797,0.509728,-38.8599,69.4578)">
            <path d="M36.912,155.115C33.068,152.04 34.519,141.248 38.379,144.216C122.101,208.588 227.384,144.216 227.384,144.216L226.726,132.465L235.186,148.246L228.651,168.92L227.622,156.389C227.622,156.389 207.75,168.698 178.395,177.269C139.766,188.547 84.715,193.351 36.912,155.115Z" style="fill:url(#_Linear2);"/>
        </g>
    </g>
    <defs>
        <linearGradient id="_Linear1" x1="0" y1="0" x2="1" y2="0" gradientUnits="userSpaceOnUse" gradientTransform="matrix(208.426,0,0,75.6639,25.8735,160.182)"><stop offset="0" style="stop-color:rgb(90,56,224);stop-opacity:1"/><stop offset="1" style="stop-color:rgb(99,223,250);stop-opacity:1"/></linearGradient>
        <linearGradient id="_Linear2" x1="0" y1="0" x2="1" y2="0" gradientUnits="userSpaceOnUse" gradientTransform="matrix(200.531,0,0,52.8924,34.6551,158.911)"><stop offset="0" style="stop-color:rgb(90,56,224);stop-opacity:1"/><stop offset="1" style="stop-color:rgb(99,223,250);stop-opacity:1"/></linearGradient>
    </defs>
</svg>
